<?xml version="1.0" encoding="UTF-8"?><svg xmlns="http://www.w3.org/2000/svg" xmlns:xlink="http://www.w3.org/1999/xlink" fill-opacity="1" color-rendering="auto" color-interpolation="auto" text-rendering="auto" stroke="black" stroke-linecap="square" width="373" stroke-miterlimit="10" shape-rendering="auto" stroke-opacity="1" fill="black" stroke-dasharray="none" font-weight="normal" stroke-width="1" height="240" font-family="'Dialog'" font-style="normal" stroke-linejoin="miter" font-size="12px" stroke-dashoffset="0" image-rendering="auto">
  <!--Generated by ySVG 2.5-->
  <defs id="genericDefs"/>
  <g>
    <defs id="defs1">
      <clipPath clipPathUnits="userSpaceOnUse" id="clipPath1">
        <path d="M0 0 L373 0 L373 240 L0 240 L0 0 Z"/>
      </clipPath>
      <clipPath clipPathUnits="userSpaceOnUse" id="clipPath2">
        <path d="M403 94 L776 94 L776 334 L403 334 L403 94 Z"/>
      </clipPath>
    </defs>
    <g fill="white" text-rendering="geometricPrecision" shape-rendering="geometricPrecision" transform="translate(-403,-94)" stroke="white">
      <rect x="403" width="373" height="240" y="94" clip-path="url(#clipPath2)" stroke="none"/>
    </g>
    <g fill="rgb(255,204,0)" text-rendering="geometricPrecision" shape-rendering="geometricPrecision" transform="matrix(1,0,0,1,-403,-94)" stroke="rgb(255,204,0)">
      <rect x="418" y="109" clip-path="url(#clipPath2)" width="70" rx="4" ry="4" height="30" stroke="none"/>
    </g>
    <g text-rendering="geometricPrecision" stroke-miterlimit="1.45" shape-rendering="geometricPrecision" transform="matrix(1,0,0,1,-403,-94)" stroke-linecap="butt">
      <rect x="418" y="109" clip-path="url(#clipPath2)" fill="none" width="70" rx="4" ry="4" height="30"/>
      <text x="436.6406" xml:space="preserve" y="128.5352" clip-path="url(#clipPath2)" font-family="sans-serif" stroke="none">foo.js</text>
    </g>
    <g fill="rgb(255,204,0)" text-rendering="geometricPrecision" shape-rendering="geometricPrecision" transform="matrix(1,0,0,1,-403,-94)" stroke="rgb(255,204,0)">
      <rect x="418" y="169" clip-path="url(#clipPath2)" width="70" rx="4" ry="4" height="30" stroke="none"/>
    </g>
    <g text-rendering="geometricPrecision" stroke-miterlimit="1.45" shape-rendering="geometricPrecision" transform="matrix(1,0,0,1,-403,-94)" stroke-linecap="butt">
      <rect x="418" y="169" clip-path="url(#clipPath2)" fill="none" width="70" rx="4" ry="4" height="30"/>
      <text x="436.6729" xml:space="preserve" y="188.5352" clip-path="url(#clipPath2)" font-family="sans-serif" stroke="none">bar.js</text>
    </g>
    <g fill="rgb(255,204,0)" text-rendering="geometricPrecision" shape-rendering="geometricPrecision" transform="matrix(1,0,0,1,-403,-94)" stroke="rgb(255,204,0)">
      <rect x="418" y="229" clip-path="url(#clipPath2)" width="70" rx="4" ry="4" height="30" stroke="none"/>
    </g>
    <g text-rendering="geometricPrecision" stroke-miterlimit="1.45" shape-rendering="geometricPrecision" transform="matrix(1,0,0,1,-403,-94)" stroke-linecap="butt">
      <rect x="418" y="229" clip-path="url(#clipPath2)" fill="none" width="70" rx="4" ry="4" height="30"/>
      <text x="436.0459" xml:space="preserve" y="248.5352" clip-path="url(#clipPath2)" font-family="sans-serif" stroke="none">vue.js</text>
    </g>
    <g fill="rgb(255,204,0)" text-rendering="geometricPrecision" shape-rendering="geometricPrecision" transform="matrix(1,0,0,1,-403,-94)" stroke="rgb(255,204,0)">
      <rect x="418" y="289" clip-path="url(#clipPath2)" width="70" rx="4" ry="4" height="30" stroke="none"/>
    </g>
    <g text-rendering="geometricPrecision" stroke-miterlimit="1.45" shape-rendering="geometricPrecision" transform="matrix(1,0,0,1,-403,-94)" stroke-linecap="butt">
      <rect x="418" y="289" clip-path="url(#clipPath2)" fill="none" width="70" rx="4" ry="4" height="30"/>
      <text x="430.7461" xml:space="preserve" y="308.5352" clip-path="url(#clipPath2)" font-family="sans-serif" stroke="none">axios.js</text>
    </g>
    <g fill="rgb(255,204,0)" text-rendering="geometricPrecision" shape-rendering="geometricPrecision" transform="matrix(1,0,0,1,-403,-94)" stroke="rgb(255,204,0)">
      <circle r="35" clip-path="url(#clipPath2)" cx="601.5" cy="209.5" stroke="none"/>
    </g>
    <g text-rendering="geometricPrecision" stroke-miterlimit="1.45" shape-rendering="geometricPrecision" transform="matrix(1,0,0,1,-403,-94)" stroke-linecap="butt">
      <circle fill="none" r="35" clip-path="url(#clipPath2)" cx="601.5" cy="209.5"/>
      <text x="576.0879" xml:space="preserve" y="214.0352" clip-path="url(#clipPath2)" font-family="sans-serif" stroke="none">webpack</text>
    </g>
    <g fill="rgb(255,204,0)" text-rendering="geometricPrecision" shape-rendering="geometricPrecision" transform="matrix(1,0,0,1,-403,-94)" stroke="rgb(255,204,0)">
      <rect x="691" y="195" clip-path="url(#clipPath2)" width="70" rx="4" ry="4" height="30" stroke="none"/>
    </g>
    <g text-rendering="geometricPrecision" stroke-miterlimit="1.45" shape-rendering="geometricPrecision" transform="matrix(1,0,0,1,-403,-94)" stroke-linecap="butt">
      <rect x="691" y="195" clip-path="url(#clipPath2)" fill="none" width="70" rx="4" ry="4" height="30"/>
      <text x="704.4727" xml:space="preserve" y="214.5352" clip-path="url(#clipPath2)" font-family="sans-serif" stroke="none">build.js</text>
      <path fill="none" d="M479.0673 139.0084 L564.2352 188.0445" clip-path="url(#clipPath2)"/>
      <path d="M571.1682 192.0362 L563.2635 181.7156 L563.3686 187.5456 L558.2739 190.3818 Z" clip-path="url(#clipPath2)" stroke="none"/>
      <path fill="none" d="M487.986 190.0077 L559.1203 202.2227" clip-path="url(#clipPath2)"/>
      <path d="M567.0049 203.5766 L556.0242 196.6178 L558.1347 202.0534 L554.3318 206.4736 Z" clip-path="url(#clipPath2)" stroke="none"/>
      <path fill="none" d="M487.986 235.8719 L559.6155 219.2307" clip-path="url(#clipPath2)"/>
      <path d="M567.408 217.4204 L554.5878 215.2656 L558.6414 219.457 L556.8507 225.0062 Z" clip-path="url(#clipPath2)" stroke="none"/>
      <path fill="none" d="M476.6019 288.9806 L565.2225 232.5856" clip-path="url(#clipPath2)"/>
      <path d="M571.9719 228.2907 L559.1635 230.5148 L564.3789 233.1225 L564.5323 238.9515 Z" clip-path="url(#clipPath2)" stroke="none"/>
      <path fill="none" d="M636.4997 209.6406 L682.9953 209.8273" clip-path="url(#clipPath2)"/>
      <path d="M690.9952 209.8594 L679.0154 204.8113 L681.9953 209.8233 L678.9753 214.8112 Z" clip-path="url(#clipPath2)" stroke="none"/>
    </g>
  </g>
</svg>
