<?xml version="1.0" encoding="UTF-8"?><svg xmlns="http://www.w3.org/2000/svg" xmlns:xlink="http://www.w3.org/1999/xlink" fill-opacity="1" color-rendering="auto" color-interpolation="auto" text-rendering="auto" stroke="black" stroke-linecap="square" width="385" stroke-miterlimit="10" shape-rendering="auto" stroke-opacity="1" fill="black" stroke-dasharray="none" font-weight="normal" stroke-width="1" height="240" font-family="'Dialog'" font-style="normal" stroke-linejoin="miter" font-size="12px" stroke-dashoffset="0" image-rendering="auto">
  <!--Generated by ySVG 2.5-->
  <defs id="genericDefs"/>
  <g>
    <defs id="defs1">
      <clipPath clipPathUnits="userSpaceOnUse" id="clipPath1">
        <path d="M0 0 L385 0 L385 240 L0 240 L0 0 Z"/>
      </clipPath>
      <clipPath clipPathUnits="userSpaceOnUse" id="clipPath2">
        <path d="M432 406 L817 406 L817 646 L432 646 L432 406 Z"/>
      </clipPath>
    </defs>
    <g fill="white" text-rendering="geometricPrecision" shape-rendering="geometricPrecision" transform="translate(-432,-406)" stroke="white">
      <rect x="432" width="385" height="240" y="406" clip-path="url(#clipPath2)" stroke="none"/>
    </g>
    <g fill="rgb(255,204,0)" text-rendering="geometricPrecision" shape-rendering="geometricPrecision" transform="matrix(1,0,0,1,-432,-406)" stroke="rgb(255,204,0)">
      <rect x="447" y="421" clip-path="url(#clipPath2)" width="70" rx="4" ry="4" height="30" stroke="none"/>
    </g>
    <g text-rendering="geometricPrecision" stroke-miterlimit="1.45" shape-rendering="geometricPrecision" transform="matrix(1,0,0,1,-432,-406)" stroke-linecap="butt">
      <rect x="447" y="421" clip-path="url(#clipPath2)" fill="none" width="70" rx="4" ry="4" height="30"/>
      <text x="465.6406" xml:space="preserve" y="440.5352" clip-path="url(#clipPath2)" font-family="sans-serif" stroke="none">foo.js</text>
    </g>
    <g fill="rgb(255,204,0)" text-rendering="geometricPrecision" shape-rendering="geometricPrecision" transform="matrix(1,0,0,1,-432,-406)" stroke="rgb(255,204,0)">
      <rect x="447" y="481" clip-path="url(#clipPath2)" width="70" rx="4" ry="4" height="30" stroke="none"/>
    </g>
    <g text-rendering="geometricPrecision" stroke-miterlimit="1.45" shape-rendering="geometricPrecision" transform="matrix(1,0,0,1,-432,-406)" stroke-linecap="butt">
      <rect x="447" y="481" clip-path="url(#clipPath2)" fill="none" width="70" rx="4" ry="4" height="30"/>
      <text x="465.6729" xml:space="preserve" y="500.5352" clip-path="url(#clipPath2)" font-family="sans-serif" stroke="none">bar.js</text>
    </g>
    <g fill="rgb(255,204,0)" text-rendering="geometricPrecision" shape-rendering="geometricPrecision" transform="matrix(1,0,0,1,-432,-406)" stroke="rgb(255,204,0)">
      <rect x="447" y="541" clip-path="url(#clipPath2)" width="70" rx="4" ry="4" height="30" stroke="none"/>
    </g>
    <g text-rendering="geometricPrecision" stroke-miterlimit="1.45" shape-rendering="geometricPrecision" transform="matrix(1,0,0,1,-432,-406)" stroke-linecap="butt">
      <rect x="447" y="541" clip-path="url(#clipPath2)" fill="none" width="70" rx="4" ry="4" height="30"/>
      <text x="465.0459" xml:space="preserve" y="560.5352" clip-path="url(#clipPath2)" font-family="sans-serif" stroke="none">vue.js</text>
    </g>
    <g fill="rgb(255,204,0)" text-rendering="geometricPrecision" shape-rendering="geometricPrecision" transform="matrix(1,0,0,1,-432,-406)" stroke="rgb(255,204,0)">
      <rect x="447" y="601" clip-path="url(#clipPath2)" width="70" rx="4" ry="4" height="30" stroke="none"/>
    </g>
    <g text-rendering="geometricPrecision" stroke-miterlimit="1.45" shape-rendering="geometricPrecision" transform="matrix(1,0,0,1,-432,-406)" stroke-linecap="butt">
      <rect x="447" y="601" clip-path="url(#clipPath2)" fill="none" width="70" rx="4" ry="4" height="30"/>
      <text x="459.7461" xml:space="preserve" y="620.5352" clip-path="url(#clipPath2)" font-family="sans-serif" stroke="none">axios.js</text>
    </g>
    <g fill="rgb(255,204,0)" text-rendering="geometricPrecision" shape-rendering="geometricPrecision" transform="matrix(1,0,0,1,-432,-406)" stroke="rgb(255,204,0)">
      <rect x="732" y="421" clip-path="url(#clipPath2)" width="70" rx="4" ry="4" height="30" stroke="none"/>
    </g>
    <g text-rendering="geometricPrecision" stroke-miterlimit="1.45" shape-rendering="geometricPrecision" transform="matrix(1,0,0,1,-432,-406)" stroke-linecap="butt">
      <rect x="732" y="421" clip-path="url(#clipPath2)" fill="none" width="70" rx="4" ry="4" height="30"/>
      <text x="737.6826" xml:space="preserve" y="440.5352" clip-path="url(#clipPath2)" font-family="sans-serif" stroke="none">foo.min.js</text>
    </g>
    <g fill="rgb(255,204,0)" text-rendering="geometricPrecision" shape-rendering="geometricPrecision" transform="matrix(1,0,0,1,-432,-406)" stroke="rgb(255,204,0)">
      <rect x="732" y="502" clip-path="url(#clipPath2)" width="70" rx="4" ry="4" height="30" stroke="none"/>
    </g>
    <g text-rendering="geometricPrecision" stroke-miterlimit="1.45" shape-rendering="geometricPrecision" transform="matrix(1,0,0,1,-432,-406)" stroke-linecap="butt">
      <rect x="732" y="502" clip-path="url(#clipPath2)" fill="none" width="70" rx="4" ry="4" height="30"/>
      <text x="737.7148" xml:space="preserve" y="521.5352" clip-path="url(#clipPath2)" font-family="sans-serif" stroke="none">bar.min.js</text>
    </g>
    <g fill="rgb(255,204,0)" text-rendering="geometricPrecision" shape-rendering="geometricPrecision" transform="matrix(1,0,0,1,-432,-406)" stroke="rgb(255,204,0)">
      <rect x="731" y="577" clip-path="url(#clipPath2)" width="70" rx="4" ry="4" height="30" stroke="none"/>
    </g>
    <g text-rendering="geometricPrecision" stroke-miterlimit="1.45" shape-rendering="geometricPrecision" transform="matrix(1,0,0,1,-432,-406)" stroke-linecap="butt">
      <rect x="731" y="577" clip-path="url(#clipPath2)" fill="none" width="70" rx="4" ry="4" height="30"/>
      <text x="739.1289" xml:space="preserve" y="596.5352" clip-path="url(#clipPath2)" font-family="sans-serif" stroke="none">vendor.js</text>
      <path fill="none" d="M517.0336 436 L724.001 436" clip-path="url(#clipPath2)"/>
      <path d="M732.001 436 L720.001 431 L723.001 436 L720.001 441 Z" clip-path="url(#clipPath2)" stroke="none"/>
      <path fill="none" d="M517.0336 498.5814 L724.0226 513.8333" clip-path="url(#clipPath2)"/>
      <path d="M732.001 514.4211 L720.4009 508.5528 L723.0254 513.7598 L719.6661 518.5258 Z" clip-path="url(#clipPath2)" stroke="none"/>
      <path fill="none" d="M516.98 560.4341 L723.0754 586.5588" clip-path="url(#clipPath2)"/>
      <path d="M731.0119 587.5649 L719.736 581.0955 L722.0834 586.4331 L718.4784 591.0161 Z" clip-path="url(#clipPath2)" stroke="none"/>
      <path fill="none" d="M516.98 613.0439 L723.0403 595.6304" clip-path="url(#clipPath2)"/>
      <path d="M731.0119 594.9567 L718.6335 590.9849 L722.0439 595.7146 L719.4755 600.9494 Z" clip-path="url(#clipPath2)" stroke="none"/>
    </g>
  </g>
</svg>
