<?xml version="1.0" encoding="UTF-8"?><svg xmlns="http://www.w3.org/2000/svg" xmlns:xlink="http://www.w3.org/1999/xlink" fill-opacity="1" color-rendering="auto" color-interpolation="auto" text-rendering="auto" stroke="black" stroke-linecap="square" width="373" stroke-miterlimit="10" shape-rendering="auto" stroke-opacity="1" fill="black" stroke-dasharray="none" font-weight="normal" stroke-width="1" height="240" font-family="'Dialog'" font-style="normal" stroke-linejoin="miter" font-size="12px" stroke-dashoffset="0" image-rendering="auto">
  <!--Generated by ySVG 2.5-->
  <defs id="genericDefs"/>
  <g>
    <defs id="defs1">
      <clipPath clipPathUnits="userSpaceOnUse" id="clipPath1">
        <path d="M0 0 L373 0 L373 240 L0 240 L0 0 Z"/>
      </clipPath>
      <clipPath clipPathUnits="userSpaceOnUse" id="clipPath2">
        <path d="M428 119 L801 119 L801 359 L428 359 L428 119 Z"/>
      </clipPath>
    </defs>
    <g fill="white" text-rendering="geometricPrecision" shape-rendering="geometricPrecision" transform="translate(-428,-119)" stroke="white">
      <rect x="428" width="373" height="240" y="119" clip-path="url(#clipPath2)" stroke="none"/>
    </g>
    <g fill="rgb(255,204,0)" text-rendering="geometricPrecision" shape-rendering="geometricPrecision" transform="matrix(1,0,0,1,-428,-119)" stroke="rgb(255,204,0)">
      <rect x="443" y="134" clip-path="url(#clipPath2)" width="70" rx="4" ry="4" height="30" stroke="none"/>
    </g>
    <g text-rendering="geometricPrecision" stroke-miterlimit="1.45" shape-rendering="geometricPrecision" transform="matrix(1,0,0,1,-428,-119)" stroke-linecap="butt">
      <rect x="443" y="134" clip-path="url(#clipPath2)" fill="none" width="70" rx="4" ry="4" height="30"/>
      <text x="461.6406" xml:space="preserve" y="153.5352" clip-path="url(#clipPath2)" font-family="sans-serif" stroke="none">foo.js</text>
    </g>
    <g fill="rgb(255,204,0)" text-rendering="geometricPrecision" shape-rendering="geometricPrecision" transform="matrix(1,0,0,1,-428,-119)" stroke="rgb(255,204,0)">
      <rect x="443" y="194" clip-path="url(#clipPath2)" width="70" rx="4" ry="4" height="30" stroke="none"/>
    </g>
    <g text-rendering="geometricPrecision" stroke-miterlimit="1.45" shape-rendering="geometricPrecision" transform="matrix(1,0,0,1,-428,-119)" stroke-linecap="butt">
      <rect x="443" y="194" clip-path="url(#clipPath2)" fill="none" width="70" rx="4" ry="4" height="30"/>
      <text x="452.418" xml:space="preserve" y="213.5352" clip-path="url(#clipPath2)" font-family="sans-serif" stroke="none">hoge.css</text>
    </g>
    <g fill="rgb(255,204,0)" text-rendering="geometricPrecision" shape-rendering="geometricPrecision" transform="matrix(1,0,0,1,-428,-119)" stroke="rgb(255,204,0)">
      <rect x="443" y="254" clip-path="url(#clipPath2)" width="70" rx="4" ry="4" height="30" stroke="none"/>
    </g>
    <g text-rendering="geometricPrecision" stroke-miterlimit="1.45" shape-rendering="geometricPrecision" transform="matrix(1,0,0,1,-428,-119)" stroke-linecap="butt">
      <rect x="443" y="254" clip-path="url(#clipPath2)" fill="none" width="70" rx="4" ry="4" height="30"/>
      <text x="457.5479" xml:space="preserve" y="273.5352" clip-path="url(#clipPath2)" font-family="sans-serif" stroke="none">font.ttf</text>
    </g>
    <g fill="rgb(255,204,0)" text-rendering="geometricPrecision" shape-rendering="geometricPrecision" transform="matrix(1,0,0,1,-428,-119)" stroke="rgb(255,204,0)">
      <rect x="443" y="314" clip-path="url(#clipPath2)" width="70" rx="4" ry="4" height="30" stroke="none"/>
    </g>
    <g text-rendering="geometricPrecision" stroke-miterlimit="1.45" shape-rendering="geometricPrecision" transform="matrix(1,0,0,1,-428,-119)" stroke-linecap="butt">
      <rect x="443" y="314" clip-path="url(#clipPath2)" fill="none" width="70" rx="4" ry="4" height="30"/>
      <text x="461.0459" xml:space="preserve" y="333.5352" clip-path="url(#clipPath2)" font-family="sans-serif" stroke="none">vue.js</text>
    </g>
    <g fill="rgb(255,204,0)" text-rendering="geometricPrecision" shape-rendering="geometricPrecision" transform="matrix(1,0,0,1,-428,-119)" stroke="rgb(255,204,0)">
      <circle r="35" clip-path="url(#clipPath2)" cx="626.5" cy="234.5" stroke="none"/>
    </g>
    <g text-rendering="geometricPrecision" stroke-miterlimit="1.45" shape-rendering="geometricPrecision" transform="matrix(1,0,0,1,-428,-119)" stroke-linecap="butt">
      <circle fill="none" r="35" clip-path="url(#clipPath2)" cx="626.5" cy="234.5"/>
      <text x="601.0879" xml:space="preserve" y="239.0352" clip-path="url(#clipPath2)" font-family="sans-serif" stroke="none">webpack</text>
    </g>
    <g fill="rgb(255,204,0)" text-rendering="geometricPrecision" shape-rendering="geometricPrecision" transform="matrix(1,0,0,1,-428,-119)" stroke="rgb(255,204,0)">
      <rect x="716" y="220" clip-path="url(#clipPath2)" width="70" rx="4" ry="4" height="30" stroke="none"/>
    </g>
    <g text-rendering="geometricPrecision" stroke-miterlimit="1.45" shape-rendering="geometricPrecision" transform="matrix(1,0,0,1,-428,-119)" stroke-linecap="butt">
      <rect x="716" y="220" clip-path="url(#clipPath2)" fill="none" width="70" rx="4" ry="4" height="30"/>
      <text x="729.4727" xml:space="preserve" y="239.5352" clip-path="url(#clipPath2)" font-family="sans-serif" stroke="none">build.js</text>
      <path fill="none" d="M504.0673 164.0084 L589.2352 213.0445" clip-path="url(#clipPath2)"/>
      <path d="M596.1682 217.0362 L588.2635 206.7156 L588.3686 212.5456 L583.2739 215.3818 Z" clip-path="url(#clipPath2)" stroke="none"/>
      <path fill="none" d="M512.986 215.0077 L584.1203 227.2227" clip-path="url(#clipPath2)"/>
      <path d="M592.0049 228.5766 L581.0242 221.6178 L583.1347 227.0534 L579.3318 231.4736 Z" clip-path="url(#clipPath2)" stroke="none"/>
      <path fill="none" d="M512.986 260.8719 L584.6155 244.2307" clip-path="url(#clipPath2)"/>
      <path d="M592.408 242.4204 L579.5878 240.2656 L583.6414 244.457 L581.8507 250.0062 Z" clip-path="url(#clipPath2)" stroke="none"/>
      <path fill="none" d="M501.6019 313.9806 L590.2225 257.5856" clip-path="url(#clipPath2)"/>
      <path d="M596.9719 253.2907 L584.1635 255.5148 L589.3789 258.1225 L589.5322 263.9514 Z" clip-path="url(#clipPath2)" stroke="none"/>
      <path fill="none" d="M661.4997 234.6406 L707.9953 234.8273" clip-path="url(#clipPath2)"/>
      <path d="M715.9952 234.8594 L704.0154 229.8113 L706.9953 234.8233 L703.9753 239.8112 Z" clip-path="url(#clipPath2)" stroke="none"/>
    </g>
  </g>
</svg>
