<?xml version="1.0" encoding="UTF-8"?><svg xmlns="http://www.w3.org/2000/svg" xmlns:xlink="http://www.w3.org/1999/xlink" fill-opacity="1" color-rendering="auto" color-interpolation="auto" text-rendering="auto" stroke="black" stroke-linecap="square" width="385" stroke-miterlimit="10" shape-rendering="auto" stroke-opacity="1" fill="black" stroke-dasharray="none" font-weight="normal" stroke-width="1" height="240" font-family="'Dialog'" font-style="normal" stroke-linejoin="miter" font-size="12px" stroke-dashoffset="0" image-rendering="auto">
  <!--Generated by ySVG 2.5-->
  <defs id="genericDefs"/>
  <g>
    <defs id="defs1">
      <clipPath clipPathUnits="userSpaceOnUse" id="clipPath1">
        <path d="M0 0 L385 0 L385 240 L0 240 L0 0 Z"/>
      </clipPath>
      <clipPath clipPathUnits="userSpaceOnUse" id="clipPath2">
        <path d="M407 381 L792 381 L792 621 L407 621 L407 381 Z"/>
      </clipPath>
    </defs>
    <g fill="white" text-rendering="geometricPrecision" shape-rendering="geometricPrecision" transform="translate(-407,-381)" stroke="white">
      <rect x="407" width="385" height="240" y="381" clip-path="url(#clipPath2)" stroke="none"/>
    </g>
    <g fill="rgb(255,204,0)" text-rendering="geometricPrecision" shape-rendering="geometricPrecision" transform="matrix(1,0,0,1,-407,-381)" stroke="rgb(255,204,0)">
      <rect x="422" y="396" clip-path="url(#clipPath2)" width="70" rx="4" ry="4" height="30" stroke="none"/>
    </g>
    <g text-rendering="geometricPrecision" stroke-miterlimit="1.45" shape-rendering="geometricPrecision" transform="matrix(1,0,0,1,-407,-381)" stroke-linecap="butt">
      <rect x="422" y="396" clip-path="url(#clipPath2)" fill="none" width="70" rx="4" ry="4" height="30"/>
      <text x="440.6406" xml:space="preserve" y="415.5352" clip-path="url(#clipPath2)" font-family="sans-serif" stroke="none">foo.js</text>
    </g>
    <g fill="rgb(255,204,0)" text-rendering="geometricPrecision" shape-rendering="geometricPrecision" transform="matrix(1,0,0,1,-407,-381)" stroke="rgb(255,204,0)">
      <rect x="422" y="456" clip-path="url(#clipPath2)" width="70" rx="4" ry="4" height="30" stroke="none"/>
    </g>
    <g text-rendering="geometricPrecision" stroke-miterlimit="1.45" shape-rendering="geometricPrecision" transform="matrix(1,0,0,1,-407,-381)" stroke-linecap="butt">
      <rect x="422" y="456" clip-path="url(#clipPath2)" fill="none" width="70" rx="4" ry="4" height="30"/>
      <text x="440.6729" xml:space="preserve" y="475.5352" clip-path="url(#clipPath2)" font-family="sans-serif" stroke="none">bar.js</text>
    </g>
    <g fill="rgb(255,204,0)" text-rendering="geometricPrecision" shape-rendering="geometricPrecision" transform="matrix(1,0,0,1,-407,-381)" stroke="rgb(255,204,0)">
      <rect x="422" y="516" clip-path="url(#clipPath2)" width="70" rx="4" ry="4" height="30" stroke="none"/>
    </g>
    <g text-rendering="geometricPrecision" stroke-miterlimit="1.45" shape-rendering="geometricPrecision" transform="matrix(1,0,0,1,-407,-381)" stroke-linecap="butt">
      <rect x="422" y="516" clip-path="url(#clipPath2)" fill="none" width="70" rx="4" ry="4" height="30"/>
      <text x="440.0459" xml:space="preserve" y="535.5352" clip-path="url(#clipPath2)" font-family="sans-serif" stroke="none">vue.js</text>
    </g>
    <g fill="rgb(255,204,0)" text-rendering="geometricPrecision" shape-rendering="geometricPrecision" transform="matrix(1,0,0,1,-407,-381)" stroke="rgb(255,204,0)">
      <rect x="422" y="576" clip-path="url(#clipPath2)" width="70" rx="4" ry="4" height="30" stroke="none"/>
    </g>
    <g text-rendering="geometricPrecision" stroke-miterlimit="1.45" shape-rendering="geometricPrecision" transform="matrix(1,0,0,1,-407,-381)" stroke-linecap="butt">
      <rect x="422" y="576" clip-path="url(#clipPath2)" fill="none" width="70" rx="4" ry="4" height="30"/>
      <text x="434.7461" xml:space="preserve" y="595.5352" clip-path="url(#clipPath2)" font-family="sans-serif" stroke="none">axios.js</text>
    </g>
    <g fill="rgb(255,204,0)" text-rendering="geometricPrecision" shape-rendering="geometricPrecision" transform="matrix(1,0,0,1,-407,-381)" stroke="rgb(255,204,0)">
      <circle r="35" clip-path="url(#clipPath2)" cx="605.5" cy="496.5" stroke="none"/>
    </g>
    <g text-rendering="geometricPrecision" stroke-miterlimit="1.45" shape-rendering="geometricPrecision" transform="matrix(1,0,0,1,-407,-381)" stroke-linecap="butt">
      <circle fill="none" r="35" clip-path="url(#clipPath2)" cx="605.5" cy="496.5"/>
      <text x="580.0879" xml:space="preserve" y="501.0352" clip-path="url(#clipPath2)" font-family="sans-serif" stroke="none">webpack</text>
    </g>
    <g fill="rgb(255,204,0)" text-rendering="geometricPrecision" shape-rendering="geometricPrecision" transform="matrix(1,0,0,1,-407,-381)" stroke="rgb(255,204,0)">
      <rect x="707" y="396" clip-path="url(#clipPath2)" width="70" rx="4" ry="4" height="30" stroke="none"/>
    </g>
    <g text-rendering="geometricPrecision" stroke-miterlimit="1.45" shape-rendering="geometricPrecision" transform="matrix(1,0,0,1,-407,-381)" stroke-linecap="butt">
      <rect x="707" y="396" clip-path="url(#clipPath2)" fill="none" width="70" rx="4" ry="4" height="30"/>
      <text x="712.6826" xml:space="preserve" y="415.5352" clip-path="url(#clipPath2)" font-family="sans-serif" stroke="none">foo.min.js</text>
    </g>
    <g fill="rgb(255,204,0)" text-rendering="geometricPrecision" shape-rendering="geometricPrecision" transform="matrix(1,0,0,1,-407,-381)" stroke="rgb(255,204,0)">
      <rect x="707" y="477" clip-path="url(#clipPath2)" width="70" rx="4" ry="4" height="30" stroke="none"/>
    </g>
    <g text-rendering="geometricPrecision" stroke-miterlimit="1.45" shape-rendering="geometricPrecision" transform="matrix(1,0,0,1,-407,-381)" stroke-linecap="butt">
      <rect x="707" y="477" clip-path="url(#clipPath2)" fill="none" width="70" rx="4" ry="4" height="30"/>
      <text x="712.7148" xml:space="preserve" y="496.5352" clip-path="url(#clipPath2)" font-family="sans-serif" stroke="none">bar.min.js</text>
    </g>
    <g fill="rgb(255,204,0)" text-rendering="geometricPrecision" shape-rendering="geometricPrecision" transform="matrix(1,0,0,1,-407,-381)" stroke="rgb(255,204,0)">
      <rect x="706" y="552" clip-path="url(#clipPath2)" width="70" rx="4" ry="4" height="30" stroke="none"/>
    </g>
    <g text-rendering="geometricPrecision" stroke-miterlimit="1.45" shape-rendering="geometricPrecision" transform="matrix(1,0,0,1,-407,-381)" stroke-linecap="butt">
      <rect x="706" y="552" clip-path="url(#clipPath2)" fill="none" width="70" rx="4" ry="4" height="30"/>
      <text x="714.1289" xml:space="preserve" y="571.5352" clip-path="url(#clipPath2)" font-family="sans-serif" stroke="none">vendor.js</text>
      <path fill="none" d="M483.0673 426.0084 L568.2352 475.0445" clip-path="url(#clipPath2)"/>
      <path d="M575.1682 479.0363 L567.2635 468.7155 L567.3686 474.5456 L562.2739 477.3818 Z" clip-path="url(#clipPath2)" stroke="none"/>
      <path fill="none" d="M491.986 477.0077 L563.1203 489.2227" clip-path="url(#clipPath2)"/>
      <path d="M571.0049 490.5766 L560.0242 483.6179 L562.1347 489.0534 L558.3318 493.4736 Z" clip-path="url(#clipPath2)" stroke="none"/>
      <path fill="none" d="M491.986 522.8719 L563.6155 506.2307" clip-path="url(#clipPath2)"/>
      <path d="M571.408 504.4204 L558.5878 502.2656 L562.6414 506.457 L560.8507 512.0062 Z" clip-path="url(#clipPath2)" stroke="none"/>
      <path fill="none" d="M480.6019 575.9806 L569.2225 519.5856" clip-path="url(#clipPath2)"/>
      <path d="M575.9719 515.2906 L563.1635 517.5148 L568.3789 520.1225 L568.5322 525.9514 Z" clip-path="url(#clipPath2)" stroke="none"/>
      <path fill="none" d="M635.1616 477.9207 L711.2494 430.2614" clip-path="url(#clipPath2)"/>
      <path d="M718.0292 426.0147 L705.2053 428.1474 L710.4019 430.7922 L710.5137 436.6221 Z" clip-path="url(#clipPath2)" stroke="none"/>
      <path fill="none" d="M640.481 495.3468 L698.9585 493.4189" clip-path="url(#clipPath2)"/>
      <path d="M706.9542 493.1554 L694.796 488.5534 L697.959 493.4519 L695.1254 498.548 Z" clip-path="url(#clipPath2)" stroke="none"/>
      <path fill="none" d="M636.5488 512.6545 L705.0618 548.3015" clip-path="url(#clipPath2)"/>
      <path d="M712.1586 551.994 L703.8211 542.0197 L704.1746 547.84 L699.2055 550.8908 Z" clip-path="url(#clipPath2)" stroke="none"/>
    </g>
  </g>
</svg>
